<svg height="98337" viewBox="0 0 98368 98337" width="98368" xmlns="http://www.w3.org/2000/svg">
<rect fill="white" height="98337" width="98368" x="0" y="0"/>
<path d="M98366,50148 L98307,50148 L98307,48923 L98113,48923 L98113,47707 L97607,47707 L97607,46521 L97482,46521 L97482,45318 L97950,45318 L97950,44042 L97235,44042 L97235,42911 L97598,42911 L97598,41619 L97133,41619 L97133,40464 L97196,40464 L97196,39200 L96740,39200 L96740,38050 L95787,38050 L95787,37050 L95532,37050 L95532,35867 L95935,35867 L95935,34455 L95040,34455 L95040,33475 L94776,33475 L94776,32272 L94382,32272 L94382,31114 L93362,31114 L93362,30236 L93104,30236 L93104,29019 L92360,29019 L92360,28037 L92341,28037 L92341,26667 L91520,26667 L91520,25729 L90775,25729 L90775,24757 L89893,24757 L89893,23883 L89850,23883 L89850,22443 L88456,22443 L88456,21941 L87827,21941 L87827,20904 L86976,20904 L86976,20037 L86811,20037 L86811,18593 L85627,18593 L85627,18009 L84638,18009 L84638,17275 L83692,17275 L83692,16513 L83137,16513 L83137,15352 L82277,15352 L82277,14493 L81398,14493 L81398,13651 L80254,13651 L80254,13126 L79553,13126 L79553,12061 L78407,12061 L78407,11561 L77481,11561 L77481,10773 L76295,10773 L76295,10365 L75599,10365 L75599,9207 L74687,9207 L74687,8354 L73180,8354 L73180,8536 L72584,8536 L72584,7085 L71246,7085 L71246,7019 L70162,7019 L70162,6470 L69152,6470 L69152,5745 L67941,5745 L67941,5481 L66772,5481 L66772,5135 L65797,5135 L65797,4242 L64653,4242 L64653,3793 L63429,3793 L63429,3602 L62063,3602 L62063,3989 L61053,3989 L61053,3023 L59891,3023 L59891,2603 L58620,2603 L58620,2740 L57396,2740 L57396,2686 L56262,2686 L56262,2002 L55008,2002 L55008,2201 L53829,2201 L53829,1667 L52590,1667 L52590,1833 L51364,1833 L51364,1955 L50147,1955 L50147,1995 L48924,1995 L48924,1722 L47714,1722 L47714,2024 L46520,2024 L46520,2379 L45244,2379 L45244,1770 L44085,1770 L44085,2396 L42924,2396 L42924,2849 L41715,2849 L41715,2947 L40499,2947 L40499,3039 L39294,3039 L39294,3215 L38229,3215 L38229,3958 L37061,3958 L37061,4251 L35728,4251 L35728,4020 L34752,4020 L34752,4939 L33532,4939 L33532,5115 L32430,5115 L32430,5620 L31314,5620 L31314,6085 L30138,6085 L30138,6421 L29175,6421 L29175,7215 L27950,7215 L27950,7471 L26836,7471 L26836,7964 L25744,7964 L25744,8505 L24638,8505 L24638,9032 L23436,9032 L23436,9424 L22633,9424 L22633,10423 L22002,10423 L22002,11627 L20597,11627 L20597,11773 L19481,11773 L19481,12337 L18920,12337 L18920,13571 L17621,13571 L17621,13940 L17263,13940 L17263,15348 L15881,15348 L15881,15671 L15029,15671 L15029,16553 L14825,16553 L14825,18024 L13917,18024 L13917,18831 L12733,18831 L12733,19422 L12468,19422 L12468,20764 L11174,20764 L11174,21306 L11006,21306 L11006,22682 L9595,22682 L9595,23193 L8962,23193 L8962,24246 L8351,24246 L8351,25310 L8536,25310 L8536,26819 L7403,26819 L7403,27583 L6585,27583 L6585,28538 L6433,28538 L6433,29820 L5818,29820 L5818,30879 L5754,30879 L5754,32168 L4977,32168 L4977,33168 L5043,33168 L5043,34479 L3992,34479 L3992,35409 L3432,35409 L3432,36520 L3345,36520 L3345,37767 L2858,37767 L2858,38908 L3205,38908 L3205,40233 L3045,40233 L3045,41435 L2714,41435 L2714,42607 L2014,42607 L2014,43739 L2452,43739 L2452,45017 L2620,45017 L2620,46245 L2139,46245 L2139,47425 L1544,47425 L1544,48623 L94901,48623 L94901,50137 L1874,50137 L1874,51071 L2406,51071 L2406,52267 L2535,52267 L2535,53468 L2407,53468 L2407,54692 L2100,54692 L2100,55951 L2477,55951 L2477,57131 L3183,57131 L3183,58243 L3364,58243 L3364,59434 L2727,59434 L2727,60817 L3757,60817 L3757,61821 L4289,61821 L4289,62927 L4368,62927 L4368,64163 L4556,64163 L4556,65377 L4871,65377 L4871,66556 L5548,66556 L5548,67598 L6041,67598 L6041,68704 L6330,68704 L6330,69903 L6414,69903 L6414,71214 L7700,71214 L7700,71930 L7729,71930 L7729,73292 L8178,73292 L8178,74446 L8858,74446 L8858,75469 L9869,75469 L9869,76272 L10112,76272 L10112,77581 L11495,77581 L11495,78093 L12132,78093 L12132,79126 L12556,79126 L12556,80340 L13647,80340 L13647,81014 L14449,81014 L14449,81921 L15396,81921 L15396,82691 L15795,82691 L15795,83995 L17094,83995 L17094,84405 L17567,84405 L17567,85676 L18574,85676 L18574,86380 L19411,86380 L19411,87279 L20631,87279 L20631,87701 L21736,87701 L21736,88244 L22680,88244 L22680,88995 L23540,88995 L23540,89880 L24483,89880 L24483,90659 L25583,90659 L25583,91187 L26692,91187 L26692,91690 L27769,91690 L27769,92242 L28705,92242 L28705,93076 L29953,93076 L29953,93279 L30878,93279 L30878,94184 L31969,94184 L31969,94739 L33101,94739 L33101,95200 L34424,95200 L34424,95114 L35495,95114 L35495,95738 L36789,95738 L36789,95637 L37705,95637 L37705,96891 L39096,96891 L39096,96340 L40291,96340 L40291,96518 L41409,96518 L41409,97096 L42548,97096 L42548,97666 L43791,97666 L43791,97583 L44961,97583 L44961,98081 L46170,98081 L46170,98326 L47444,98326 L47444,97511 L48639,97511 L48639,97881 L49852,97881 L49852,97979 L51064,97979 L51064,97800 L52275,97800 L52275,97768 L53531,97768 L53531,98335 L54755,98335 L54755,98232 L55969,98232 L55969,98049 L57068,98049 L57068,97105 L58324,97105 L58324,97277 L59500,97277 L59500,96957 L60780,96957 L60780,97112 L61786,97112 L61786,96103 L62959,96103 L62959,95821 L64273,95821 L64273,95985 L65225,95985 L65225,94994 L66483,94994 L66483,94929 L67775,94929 L67775,94898 L68944,94898 L68944,94522 L69786,94522 L69786,93414 L70985,93414 L70985,93114 L71865,93114 L71865,92173 L73348,92173 L73348,92371 L74225,92371 L74225,91443 L75389,91443 L75389,91012 L76022,91012 L76022,89748 L77517,89748 L77517,89794 L78430,89794 L78430,88966 L79311,88966 L79311,88108 L79925,88108 L79925,86931 L81253,86931 L81253,86632 L82015,86632 L82015,85655 L83187,85655 L83187,85128 L83796,85128 L83796,84004 L84629,84004 L84629,83120 L85443,83120 L85443,82219 L86203,82219 L86203,81272 L86943,81272 L86943,80312 L88257,80312 L88257,79801 L88374,79801 L88374,78360 L89373,78360 L89373,77584 L89872,77584 L89872,76453 L90997,76453 L90997,75728 L90876,75728 L90876,74231 L91727,74231 L91727,73328 L92085,73328 L92085,72148 L92782,72148 L92782,71148 L93129,71148 L93129,69976 L93959,69976 L93959,69024 L94263,69024 L94263,67838 L95192,67838 L95192,66895 L95295,66895 L95295,65637 L95985,65637 L95985,64582 L95901,64582 L95901,63286 L96757,63286 L96757,62259 L97055,62259 L97055,61071 L97328,61071 L97328,59877 L97457,59877 L97457,58656 L97143,58656 L97143,57370 L97325,57370 L97325,56174 L98141,56174 L98141,55044 L98001,55044 L98001,53803 L97497,53803 L97497,52554 L98336,52554 L98336,51373 L98366,51373 L98366,50148" fill="Gray" fill-opacity="0.4" stroke="black" stroke-width="0.2"/>
<path d="M98366,51071 L1874,51071 L1874,50148 L98366,50148 L98366,51071" fill="#E3BBA9" fill-opacity="0.4" stroke="#E3BBA9" stroke-width="0.2"/>
<path d="M98307,52267 L2406,52267 L2406,50148 L98307,50148 L98307,52267" fill="#39E14C" fill-opacity="0.4" stroke="#39E14C" stroke-width="0.2"/>
<path d="M97950,46245 L2620,46245 L2620,44042 L97950,44042 L97950,46245" fill="#1F305D" fill-opacity="0.4" stroke="#1F305D" stroke-width="0.2"/>
<path d="M97235,46245 L2620,46245 L2620,42911 L97235,42911 L97235,46245" fill="#8FF228" fill-opacity="0.4" stroke="#8FF228" stroke-width="0.2"/>
<path d="M97598,46245 L2620,46245 L2620,42911 L97598,42911 L97598,46245" fill="#73B96C" fill-opacity="0.4" stroke="#73B96C" stroke-width="0.2"/>
<path d="M94901,57131 L3183,57131 L3183,50137 L94901,50137 L94901,57131" fill="#279809" fill-opacity="0.4" stroke="#279809" stroke-width="0.2"/>
<path d="M94901,58243 L3183,58243 L3183,50137 L94901,50137 L94901,58243" fill="#75ECE7" fill-opacity="0.4" stroke="#75ECE7" stroke-width="0.2"/>
<path d="M94901,59434 L3364,59434 L3364,50137 L94901,50137 L94901,59434" fill="#C2C2F5" fill-opacity="0.4" stroke="#C2C2F5" stroke-width="0.2"/>
<path d="M94901,60817 L3757,60817 L3757,50137 L94901,50137 L94901,60817" fill="#67C80A" fill-opacity="0.4" stroke="#67C80A" stroke-width="0.2"/>
<path d="M94901,61821 L3757,61821 L3757,50137 L94901,50137 L94901,61821" fill="#FEC965" fill-opacity="0.4" stroke="#FEC965" stroke-width="0.2"/>
<path d="M94901,62927 L4289,62927 L4289,50137 L94901,50137 L94901,62927" fill="#C418A3" fill-opacity="0.4" stroke="#C418A3" stroke-width="0.2"/>
<path d="M94901,64163 L4368,64163 L4368,50137 L94901,50137 L94901,64163" fill="#28112B" fill-opacity="0.4" stroke="#28112B" stroke-width="0.2"/>
<path d="M94901,65377 L4556,65377 L4556,50137 L94901,50137 L94901,65377" fill="#97D2C1" fill-opacity="0.4" stroke="#97D2C1" stroke-width="0.2"/>
<path d="M94901,66556 L4871,66556 L4871,50137 L94901,50137 L94901,66556" fill="#DB93C6" fill-opacity="0.4" stroke="#DB93C6" stroke-width="0.2"/>
<path d="M94901,67598 L5548,67598 L5548,50137 L94901,50137 L94901,67598" fill="#954BB4" fill-opacity="0.4" stroke="#954BB4" stroke-width="0.2"/>
<circle cx="98366" cy="50148" fill="Red" r="0.5"/>
<circle cx="98307" cy="50148" fill="Red" r="0.5"/>
<circle cx="98307" cy="48923" fill="Red" r="0.5"/>
<circle cx="98113" cy="48923" fill="Red" r="0.5"/>
<circle cx="98113" cy="47707" fill="Red" r="0.5"/>
<circle cx="97607" cy="47707" fill="Red" r="0.5"/>
<circle cx="97607" cy="46521" fill="Red" r="0.5"/>
<circle cx="97482" cy="46521" fill="Red" r="0.5"/>
<circle cx="97482" cy="45318" fill="Red" r="0.5"/>
<circle cx="97950" cy="45318" fill="Red" r="0.5"/>
<circle cx="97950" cy="44042" fill="Red" r="0.5"/>
<circle cx="97235" cy="44042" fill="Red" r="0.5"/>
<circle cx="97235" cy="42911" fill="Red" r="0.5"/>
<circle cx="97598" cy="42911" fill="Red" r="0.5"/>
<circle cx="97598" cy="41619" fill="Red" r="0.5"/>
<circle cx="97133" cy="41619" fill="Red" r="0.5"/>
<circle cx="97133" cy="40464" fill="Red" r="0.5"/>
<circle cx="97196" cy="40464" fill="Red" r="0.5"/>
<circle cx="97196" cy="39200" fill="Red" r="0.5"/>
<circle cx="96740" cy="39200" fill="Red" r="0.5"/>
<circle cx="96740" cy="38050" fill="Red" r="0.5"/>
<circle cx="95787" cy="38050" fill="Red" r="0.5"/>
<circle cx="95787" cy="37050" fill="Red" r="0.5"/>
<circle cx="95532" cy="37050" fill="Red" r="0.5"/>
<circle cx="95532" cy="35867" fill="Red" r="0.5"/>
<circle cx="95935" cy="35867" fill="Red" r="0.5"/>
<circle cx="95935" cy="34455" fill="Red" r="0.5"/>
<circle cx="95040" cy="34455" fill="Red" r="0.5"/>
<circle cx="95040" cy="33475" fill="Red" r="0.5"/>
<circle cx="94776" cy="33475" fill="Red" r="0.5"/>
<circle cx="94776" cy="32272" fill="Red" r="0.5"/>
<circle cx="94382" cy="32272" fill="Red" r="0.5"/>
<circle cx="94382" cy="31114" fill="Red" r="0.5"/>
<circle cx="93362" cy="31114" fill="Red" r="0.5"/>
<circle cx="93362" cy="30236" fill="Red" r="0.5"/>
<circle cx="93104" cy="30236" fill="Red" r="0.5"/>
<circle cx="93104" cy="29019" fill="Red" r="0.5"/>
<circle cx="92360" cy="29019" fill="Red" r="0.5"/>
<circle cx="92360" cy="28037" fill="Red" r="0.5"/>
<circle cx="92341" cy="28037" fill="Red" r="0.5"/>
<circle cx="92341" cy="26667" fill="Red" r="0.5"/>
<circle cx="91520" cy="26667" fill="Red" r="0.5"/>
<circle cx="91520" cy="25729" fill="Red" r="0.5"/>
<circle cx="90775" cy="25729" fill="Red" r="0.5"/>
<circle cx="90775" cy="24757" fill="Red" r="0.5"/>
<circle cx="89893" cy="24757" fill="Red" r="0.5"/>
<circle cx="89893" cy="23883" fill="Red" r="0.5"/>
<circle cx="89850" cy="23883" fill="Red" r="0.5"/>
<circle cx="89850" cy="22443" fill="Red" r="0.5"/>
<circle cx="88456" cy="22443" fill="Red" r="0.5"/>
<circle cx="88456" cy="21941" fill="Red" r="0.5"/>
<circle cx="87827" cy="21941" fill="Red" r="0.5"/>
<circle cx="87827" cy="20904" fill="Red" r="0.5"/>
<circle cx="86976" cy="20904" fill="Red" r="0.5"/>
<circle cx="86976" cy="20037" fill="Red" r="0.5"/>
<circle cx="86811" cy="20037" fill="Red" r="0.5"/>
<circle cx="86811" cy="18593" fill="Red" r="0.5"/>
<circle cx="85627" cy="18593" fill="Red" r="0.5"/>
<circle cx="85627" cy="18009" fill="Red" r="0.5"/>
<circle cx="84638" cy="18009" fill="Red" r="0.5"/>
<circle cx="84638" cy="17275" fill="Red" r="0.5"/>
<circle cx="83692" cy="17275" fill="Red" r="0.5"/>
<circle cx="83692" cy="16513" fill="Red" r="0.5"/>
<circle cx="83137" cy="16513" fill="Red" r="0.5"/>
<circle cx="83137" cy="15352" fill="Red" r="0.5"/>
<circle cx="82277" cy="15352" fill="Red" r="0.5"/>
<circle cx="82277" cy="14493" fill="Red" r="0.5"/>
<circle cx="81398" cy="14493" fill="Red" r="0.5"/>
<circle cx="81398" cy="13651" fill="Red" r="0.5"/>
<circle cx="80254" cy="13651" fill="Red" r="0.5"/>
<circle cx="80254" cy="13126" fill="Red" r="0.5"/>
<circle cx="79553" cy="13126" fill="Red" r="0.5"/>
<circle cx="79553" cy="12061" fill="Red" r="0.5"/>
<circle cx="78407" cy="12061" fill="Red" r="0.5"/>
<circle cx="78407" cy="11561" fill="Red" r="0.5"/>
<circle cx="77481" cy="11561" fill="Red" r="0.5"/>
<circle cx="77481" cy="10773" fill="Red" r="0.5"/>
<circle cx="76295" cy="10773" fill="Red" r="0.5"/>
<circle cx="76295" cy="10365" fill="Red" r="0.5"/>
<circle cx="75599" cy="10365" fill="Red" r="0.5"/>
<circle cx="75599" cy="9207" fill="Red" r="0.5"/>
<circle cx="74687" cy="9207" fill="Red" r="0.5"/>
<circle cx="74687" cy="8354" fill="Red" r="0.5"/>
<circle cx="73180" cy="8354" fill="Red" r="0.5"/>
<circle cx="73180" cy="8536" fill="Red" r="0.5"/>
<circle cx="72584" cy="8536" fill="Red" r="0.5"/>
<circle cx="72584" cy="7085" fill="Red" r="0.5"/>
<circle cx="71246" cy="7085" fill="Red" r="0.5"/>
<circle cx="71246" cy="7019" fill="Red" r="0.5"/>
<circle cx="70162" cy="7019" fill="Red" r="0.5"/>
<circle cx="70162" cy="6470" fill="Red" r="0.5"/>
<circle cx="69152" cy="6470" fill="Red" r="0.5"/>
<circle cx="69152" cy="5745" fill="Red" r="0.5"/>
<circle cx="67941" cy="5745" fill="Red" r="0.5"/>
<circle cx="67941" cy="5481" fill="Red" r="0.5"/>
<circle cx="66772" cy="5481" fill="Red" r="0.5"/>
<circle cx="66772" cy="5135" fill="Red" r="0.5"/>
<circle cx="65797" cy="5135" fill="Red" r="0.5"/>
<circle cx="65797" cy="4242" fill="Red" r="0.5"/>
<circle cx="64653" cy="4242" fill="Red" r="0.5"/>
<circle cx="64653" cy="3793" fill="Red" r="0.5"/>
<circle cx="63429" cy="3793" fill="Red" r="0.5"/>
<circle cx="63429" cy="3602" fill="Red" r="0.5"/>
<circle cx="62063" cy="3602" fill="Red" r="0.5"/>
<circle cx="62063" cy="3989" fill="Red" r="0.5"/>
<circle cx="61053" cy="3989" fill="Red" r="0.5"/>
<circle cx="61053" cy="3023" fill="Red" r="0.5"/>
<circle cx="59891" cy="3023" fill="Red" r="0.5"/>
<circle cx="59891" cy="2603" fill="Red" r="0.5"/>
<circle cx="58620" cy="2603" fill="Red" r="0.5"/>
<circle cx="58620" cy="2740" fill="Red" r="0.5"/>
<circle cx="57396" cy="2740" fill="Red" r="0.5"/>
<circle cx="57396" cy="2686" fill="Red" r="0.5"/>
<circle cx="56262" cy="2686" fill="Red" r="0.5"/>
<circle cx="56262" cy="2002" fill="Red" r="0.5"/>
<circle cx="55008" cy="2002" fill="Red" r="0.5"/>
<circle cx="55008" cy="2201" fill="Red" r="0.5"/>
<circle cx="53829" cy="2201" fill="Red" r="0.5"/>
<circle cx="53829" cy="1667" fill="Red" r="0.5"/>
<circle cx="52590" cy="1667" fill="Red" r="0.5"/>
<circle cx="52590" cy="1833" fill="Red" r="0.5"/>
<circle cx="51364" cy="1833" fill="Red" r="0.5"/>
<circle cx="51364" cy="1955" fill="Red" r="0.5"/>
<circle cx="50147" cy="1955" fill="Red" r="0.5"/>
<circle cx="50147" cy="1995" fill="Red" r="0.5"/>
<circle cx="48924" cy="1995" fill="Red" r="0.5"/>
<circle cx="48924" cy="1722" fill="Red" r="0.5"/>
<circle cx="47714" cy="1722" fill="Red" r="0.5"/>
<circle cx="47714" cy="2024" fill="Red" r="0.5"/>
<circle cx="46520" cy="2024" fill="Red" r="0.5"/>
<circle cx="46520" cy="2379" fill="Red" r="0.5"/>
<circle cx="45244" cy="2379" fill="Red" r="0.5"/>
<circle cx="45244" cy="1770" fill="Red" r="0.5"/>
<circle cx="44085" cy="1770" fill="Red" r="0.5"/>
<circle cx="44085" cy="2396" fill="Red" r="0.5"/>
<circle cx="42924" cy="2396" fill="Red" r="0.5"/>
<circle cx="42924" cy="2849" fill="Red" r="0.5"/>
<circle cx="41715" cy="2849" fill="Red" r="0.5"/>
<circle cx="41715" cy="2947" fill="Red" r="0.5"/>
<circle cx="40499" cy="2947" fill="Red" r="0.5"/>
<circle cx="40499" cy="3039" fill="Red" r="0.5"/>
<circle cx="39294" cy="3039" fill="Red" r="0.5"/>
<circle cx="39294" cy="3215" fill="Red" r="0.5"/>
<circle cx="38229" cy="3215" fill="Red" r="0.5"/>
<circle cx="38229" cy="3958" fill="Red" r="0.5"/>
<circle cx="37061" cy="3958" fill="Red" r="0.5"/>
<circle cx="37061" cy="4251" fill="Red" r="0.5"/>
<circle cx="35728" cy="4251" fill="Red" r="0.5"/>
<circle cx="35728" cy="4020" fill="Red" r="0.5"/>
<circle cx="34752" cy="4020" fill="Red" r="0.5"/>
<circle cx="34752" cy="4939" fill="Red" r="0.5"/>
<circle cx="33532" cy="4939" fill="Red" r="0.5"/>
<circle cx="33532" cy="5115" fill="Red" r="0.5"/>
<circle cx="32430" cy="5115" fill="Red" r="0.5"/>
<circle cx="32430" cy="5620" fill="Red" r="0.5"/>
<circle cx="31314" cy="5620" fill="Red" r="0.5"/>
<circle cx="31314" cy="6085" fill="Red" r="0.5"/>
<circle cx="30138" cy="6085" fill="Red" r="0.5"/>
<circle cx="30138" cy="6421" fill="Red" r="0.5"/>
<circle cx="29175" cy="6421" fill="Red" r="0.5"/>
<circle cx="29175" cy="7215" fill="Red" r="0.5"/>
<circle cx="27950" cy="7215" fill="Red" r="0.5"/>
<circle cx="27950" cy="7471" fill="Red" r="0.5"/>
<circle cx="26836" cy="7471" fill="Red" r="0.5"/>
<circle cx="26836" cy="7964" fill="Red" r="0.5"/>
<circle cx="25744" cy="7964" fill="Red" r="0.5"/>
<circle cx="25744" cy="8505" fill="Red" r="0.5"/>
<circle cx="24638" cy="8505" fill="Red" r="0.5"/>
<circle cx="24638" cy="9032" fill="Red" r="0.5"/>
<circle cx="23436" cy="9032" fill="Red" r="0.5"/>
<circle cx="23436" cy="9424" fill="Red" r="0.5"/>
<circle cx="22633" cy="9424" fill="Red" r="0.5"/>
<circle cx="22633" cy="10423" fill="Red" r="0.5"/>
<circle cx="22002" cy="10423" fill="Red" r="0.5"/>
<circle cx="22002" cy="11627" fill="Red" r="0.5"/>
<circle cx="20597" cy="11627" fill="Red" r="0.5"/>
<circle cx="20597" cy="11773" fill="Red" r="0.5"/>
<circle cx="19481" cy="11773" fill="Red" r="0.5"/>
<circle cx="19481" cy="12337" fill="Red" r="0.5"/>
<circle cx="18920" cy="12337" fill="Red" r="0.5"/>
<circle cx="18920" cy="13571" fill="Red" r="0.5"/>
<circle cx="17621" cy="13571" fill="Red" r="0.5"/>
<circle cx="17621" cy="13940" fill="Red" r="0.5"/>
<circle cx="17263" cy="13940" fill="Red" r="0.5"/>
<circle cx="17263" cy="15348" fill="Red" r="0.5"/>
<circle cx="15881" cy="15348" fill="Red" r="0.5"/>
<circle cx="15881" cy="15671" fill="Red" r="0.5"/>
<circle cx="15029" cy="15671" fill="Red" r="0.5"/>
<circle cx="15029" cy="16553" fill="Red" r="0.5"/>
<circle cx="14825" cy="16553" fill="Red" r="0.5"/>
<circle cx="14825" cy="18024" fill="Red" r="0.5"/>
<circle cx="13917" cy="18024" fill="Red" r="0.5"/>
<circle cx="13917" cy="18831" fill="Red" r="0.5"/>
<circle cx="12733" cy="18831" fill="Red" r="0.5"/>
<circle cx="12733" cy="19422" fill="Red" r="0.5"/>
<circle cx="12468" cy="19422" fill="Red" r="0.5"/>
<circle cx="12468" cy="20764" fill="Red" r="0.5"/>
<circle cx="11174" cy="20764" fill="Red" r="0.5"/>
<circle cx="11174" cy="21306" fill="Red" r="0.5"/>
<circle cx="11006" cy="21306" fill="Red" r="0.5"/>
<circle cx="11006" cy="22682" fill="Red" r="0.5"/>
<circle cx="9595" cy="22682" fill="Red" r="0.5"/>
<circle cx="9595" cy="23193" fill="Red" r="0.5"/>
<circle cx="8962" cy="23193" fill="Red" r="0.5"/>
<circle cx="8962" cy="24246" fill="Red" r="0.5"/>
<circle cx="8351" cy="24246" fill="Red" r="0.5"/>
<circle cx="8351" cy="25310" fill="Red" r="0.5"/>
<circle cx="8536" cy="25310" fill="Red" r="0.5"/>
<circle cx="8536" cy="26819" fill="Red" r="0.5"/>
<circle cx="7403" cy="26819" fill="Red" r="0.5"/>
<circle cx="7403" cy="27583" fill="Red" r="0.5"/>
<circle cx="6585" cy="27583" fill="Red" r="0.5"/>
<circle cx="6585" cy="28538" fill="Red" r="0.5"/>
<circle cx="6433" cy="28538" fill="Red" r="0.5"/>
<circle cx="6433" cy="29820" fill="Red" r="0.5"/>
<circle cx="5818" cy="29820" fill="Red" r="0.5"/>
<circle cx="5818" cy="30879" fill="Red" r="0.5"/>
<circle cx="5754" cy="30879" fill="Red" r="0.5"/>
<circle cx="5754" cy="32168" fill="Red" r="0.5"/>
<circle cx="4977" cy="32168" fill="Red" r="0.5"/>
<circle cx="4977" cy="33168" fill="Red" r="0.5"/>
<circle cx="5043" cy="33168" fill="Red" r="0.5"/>
<circle cx="5043" cy="34479" fill="Red" r="0.5"/>
<circle cx="3992" cy="34479" fill="Red" r="0.5"/>
<circle cx="3992" cy="35409" fill="Red" r="0.5"/>
<circle cx="3432" cy="35409" fill="Red" r="0.5"/>
<circle cx="3432" cy="36520" fill="Red" r="0.5"/>
<circle cx="3345" cy="36520" fill="Red" r="0.5"/>
<circle cx="3345" cy="37767" fill="Red" r="0.5"/>
<circle cx="2858" cy="37767" fill="Red" r="0.5"/>
<circle cx="2858" cy="38908" fill="Red" r="0.5"/>
<circle cx="3205" cy="38908" fill="Red" r="0.5"/>
<circle cx="3205" cy="40233" fill="Red" r="0.5"/>
<circle cx="3045" cy="40233" fill="Red" r="0.5"/>
<circle cx="3045" cy="41435" fill="Red" r="0.5"/>
<circle cx="2714" cy="41435" fill="Red" r="0.5"/>
<circle cx="2714" cy="42607" fill="Red" r="0.5"/>
<circle cx="2014" cy="42607" fill="Red" r="0.5"/>
<circle cx="2014" cy="43739" fill="Red" r="0.5"/>
<circle cx="2452" cy="43739" fill="Red" r="0.5"/>
<circle cx="2452" cy="45017" fill="Red" r="0.5"/>
<circle cx="2620" cy="45017" fill="Red" r="0.5"/>
<circle cx="2620" cy="46245" fill="Red" r="0.5"/>
<circle cx="2139" cy="46245" fill="Red" r="0.5"/>
<circle cx="2139" cy="47425" fill="Red" r="0.5"/>
<circle cx="1544" cy="47425" fill="Red" r="0.5"/>
<circle cx="1544" cy="48623" fill="Red" r="0.5"/>
<circle cx="94901" cy="48623" fill="Red" r="0.5"/>
<circle cx="94901" cy="50137" fill="Red" r="0.5"/>
<circle cx="1874" cy="50137" fill="Red" r="0.5"/>
<circle cx="1874" cy="51071" fill="Red" r="0.5"/>
<circle cx="2406" cy="51071" fill="Red" r="0.5"/>
<circle cx="2406" cy="52267" fill="Red" r="0.5"/>
<circle cx="2535" cy="52267" fill="Red" r="0.5"/>
<circle cx="2535" cy="53468" fill="Red" r="0.5"/>
<circle cx="2407" cy="53468" fill="Red" r="0.5"/>
<circle cx="2407" cy="54692" fill="Red" r="0.5"/>
<circle cx="2100" cy="54692" fill="Red" r="0.5"/>
<circle cx="2100" cy="55951" fill="Red" r="0.5"/>
<circle cx="2477" cy="55951" fill="Red" r="0.5"/>
<circle cx="2477" cy="57131" fill="Red" r="0.5"/>
<circle cx="3183" cy="57131" fill="Red" r="0.5"/>
<circle cx="3183" cy="58243" fill="Red" r="0.5"/>
<circle cx="3364" cy="58243" fill="Red" r="0.5"/>
<circle cx="3364" cy="59434" fill="Red" r="0.5"/>
<circle cx="2727" cy="59434" fill="Red" r="0.5"/>
<circle cx="2727" cy="60817" fill="Red" r="0.5"/>
<circle cx="3757" cy="60817" fill="Red" r="0.5"/>
<circle cx="3757" cy="61821" fill="Red" r="0.5"/>
<circle cx="4289" cy="61821" fill="Red" r="0.5"/>
<circle cx="4289" cy="62927" fill="Red" r="0.5"/>
<circle cx="4368" cy="62927" fill="Red" r="0.5"/>
<circle cx="4368" cy="64163" fill="Red" r="0.5"/>
<circle cx="4556" cy="64163" fill="Red" r="0.5"/>
<circle cx="4556" cy="65377" fill="Red" r="0.5"/>
<circle cx="4871" cy="65377" fill="Red" r="0.5"/>
<circle cx="4871" cy="66556" fill="Red" r="0.5"/>
<circle cx="5548" cy="66556" fill="Red" r="0.5"/>
<circle cx="5548" cy="67598" fill="Red" r="0.5"/>
<circle cx="6041" cy="67598" fill="Red" r="0.5"/>
<circle cx="6041" cy="68704" fill="Red" r="0.5"/>
<circle cx="6330" cy="68704" fill="Red" r="0.5"/>
<circle cx="6330" cy="69903" fill="Red" r="0.5"/>
<circle cx="6414" cy="69903" fill="Red" r="0.5"/>
<circle cx="6414" cy="71214" fill="Red" r="0.5"/>
<circle cx="7700" cy="71214" fill="Red" r="0.5"/>
<circle cx="7700" cy="71930" fill="Red" r="0.5"/>
<circle cx="7729" cy="71930" fill="Red" r="0.5"/>
<circle cx="7729" cy="73292" fill="Red" r="0.5"/>
<circle cx="8178" cy="73292" fill="Red" r="0.5"/>
<circle cx="8178" cy="74446" fill="Red" r="0.5"/>
<circle cx="8858" cy="74446" fill="Red" r="0.5"/>
<circle cx="8858" cy="75469" fill="Red" r="0.5"/>
<circle cx="9869" cy="75469" fill="Red" r="0.5"/>
<circle cx="9869" cy="76272" fill="Red" r="0.5"/>
<circle cx="10112" cy="76272" fill="Red" r="0.5"/>
<circle cx="10112" cy="77581" fill="Red" r="0.5"/>
<circle cx="11495" cy="77581" fill="Red" r="0.5"/>
<circle cx="11495" cy="78093" fill="Red" r="0.5"/>
<circle cx="12132" cy="78093" fill="Red" r="0.5"/>
<circle cx="12132" cy="79126" fill="Red" r="0.5"/>
<circle cx="12556" cy="79126" fill="Red" r="0.5"/>
<circle cx="12556" cy="80340" fill="Red" r="0.5"/>
<circle cx="13647" cy="80340" fill="Red" r="0.5"/>
<circle cx="13647" cy="81014" fill="Red" r="0.5"/>
<circle cx="14449" cy="81014" fill="Red" r="0.5"/>
<circle cx="14449" cy="81921" fill="Red" r="0.5"/>
<circle cx="15396" cy="81921" fill="Red" r="0.5"/>
<circle cx="15396" cy="82691" fill="Red" r="0.5"/>
<circle cx="15795" cy="82691" fill="Red" r="0.5"/>
<circle cx="15795" cy="83995" fill="Red" r="0.5"/>
<circle cx="17094" cy="83995" fill="Red" r="0.5"/>
<circle cx="17094" cy="84405" fill="Red" r="0.5"/>
<circle cx="17567" cy="84405" fill="Red" r="0.5"/>
<circle cx="17567" cy="85676" fill="Red" r="0.5"/>
<circle cx="18574" cy="85676" fill="Red" r="0.5"/>
<circle cx="18574" cy="86380" fill="Red" r="0.5"/>
<circle cx="19411" cy="86380" fill="Red" r="0.5"/>
<circle cx="19411" cy="87279" fill="Red" r="0.5"/>
<circle cx="20631" cy="87279" fill="Red" r="0.5"/>
<circle cx="20631" cy="87701" fill="Red" r="0.5"/>
<circle cx="21736" cy="87701" fill="Red" r="0.5"/>
<circle cx="21736" cy="88244" fill="Red" r="0.5"/>
<circle cx="22680" cy="88244" fill="Red" r="0.5"/>
<circle cx="22680" cy="88995" fill="Red" r="0.5"/>
<circle cx="23540" cy="88995" fill="Red" r="0.5"/>
<circle cx="23540" cy="89880" fill="Red" r="0.5"/>
<circle cx="24483" cy="89880" fill="Red" r="0.5"/>
<circle cx="24483" cy="90659" fill="Red" r="0.5"/>
<circle cx="25583" cy="90659" fill="Red" r="0.5"/>
<circle cx="25583" cy="91187" fill="Red" r="0.5"/>
<circle cx="26692" cy="91187" fill="Red" r="0.5"/>
<circle cx="26692" cy="91690" fill="Red" r="0.5"/>
<circle cx="27769" cy="91690" fill="Red" r="0.5"/>
<circle cx="27769" cy="92242" fill="Red" r="0.5"/>
<circle cx="28705" cy="92242" fill="Red" r="0.5"/>
<circle cx="28705" cy="93076" fill="Red" r="0.5"/>
<circle cx="29953" cy="93076" fill="Red" r="0.5"/>
<circle cx="29953" cy="93279" fill="Red" r="0.5"/>
<circle cx="30878" cy="93279" fill="Red" r="0.5"/>
<circle cx="30878" cy="94184" fill="Red" r="0.5"/>
<circle cx="31969" cy="94184" fill="Red" r="0.5"/>
<circle cx="31969" cy="94739" fill="Red" r="0.5"/>
<circle cx="33101" cy="94739" fill="Red" r="0.5"/>
<circle cx="33101" cy="95200" fill="Red" r="0.5"/>
<circle cx="34424" cy="95200" fill="Red" r="0.5"/>
<circle cx="34424" cy="95114" fill="Red" r="0.5"/>
<circle cx="35495" cy="95114" fill="Red" r="0.5"/>
<circle cx="35495" cy="95738" fill="Red" r="0.5"/>
<circle cx="36789" cy="95738" fill="Red" r="0.5"/>
<circle cx="36789" cy="95637" fill="Red" r="0.5"/>
<circle cx="37705" cy="95637" fill="Red" r="0.5"/>
<circle cx="37705" cy="96891" fill="Red" r="0.5"/>
<circle cx="39096" cy="96891" fill="Red" r="0.5"/>
<circle cx="39096" cy="96340" fill="Red" r="0.5"/>
<circle cx="40291" cy="96340" fill="Red" r="0.5"/>
<circle cx="40291" cy="96518" fill="Red" r="0.5"/>
<circle cx="41409" cy="96518" fill="Red" r="0.5"/>
<circle cx="41409" cy="97096" fill="Red" r="0.5"/>
<circle cx="42548" cy="97096" fill="Red" r="0.5"/>
<circle cx="42548" cy="97666" fill="Red" r="0.5"/>
<circle cx="43791" cy="97666" fill="Red" r="0.5"/>
<circle cx="43791" cy="97583" fill="Red" r="0.5"/>
<circle cx="44961" cy="97583" fill="Red" r="0.5"/>
<circle cx="44961" cy="98081" fill="Red" r="0.5"/>
<circle cx="46170" cy="98081" fill="Red" r="0.5"/>
<circle cx="46170" cy="98326" fill="Red" r="0.5"/>
<circle cx="47444" cy="98326" fill="Red" r="0.5"/>
<circle cx="47444" cy="97511" fill="Red" r="0.5"/>
<circle cx="48639" cy="97511" fill="Red" r="0.5"/>
<circle cx="48639" cy="97881" fill="Red" r="0.5"/>
<circle cx="49852" cy="97881" fill="Red" r="0.5"/>
<circle cx="49852" cy="97979" fill="Red" r="0.5"/>
<circle cx="51064" cy="97979" fill="Red" r="0.5"/>
<circle cx="51064" cy="97800" fill="Red" r="0.5"/>
<circle cx="52275" cy="97800" fill="Red" r="0.5"/>
<circle cx="52275" cy="97768" fill="Red" r="0.5"/>
<circle cx="53531" cy="97768" fill="Red" r="0.5"/>
<circle cx="53531" cy="98335" fill="Red" r="0.5"/>
<circle cx="54755" cy="98335" fill="Red" r="0.5"/>
<circle cx="54755" cy="98232" fill="Red" r="0.5"/>
<circle cx="55969" cy="98232" fill="Red" r="0.5"/>
<circle cx="55969" cy="98049" fill="Red" r="0.5"/>
<circle cx="57068" cy="98049" fill="Red" r="0.5"/>
<circle cx="57068" cy="97105" fill="Red" r="0.5"/>
<circle cx="58324" cy="97105" fill="Red" r="0.5"/>
<circle cx="58324" cy="97277" fill="Red" r="0.5"/>
<circle cx="59500" cy="97277" fill="Red" r="0.5"/>
<circle cx="59500" cy="96957" fill="Red" r="0.5"/>
<circle cx="60780" cy="96957" fill="Red" r="0.5"/>
<circle cx="60780" cy="97112" fill="Red" r="0.5"/>
<circle cx="61786" cy="97112" fill="Red" r="0.5"/>
<circle cx="61786" cy="96103" fill="Red" r="0.5"/>
<circle cx="62959" cy="96103" fill="Red" r="0.5"/>
<circle cx="62959" cy="95821" fill="Red" r="0.5"/>
<circle cx="64273" cy="95821" fill="Red" r="0.5"/>
<circle cx="64273" cy="95985" fill="Red" r="0.5"/>
<circle cx="65225" cy="95985" fill="Red" r="0.5"/>
<circle cx="65225" cy="94994" fill="Red" r="0.5"/>
<circle cx="66483" cy="94994" fill="Red" r="0.5"/>
<circle cx="66483" cy="94929" fill="Red" r="0.5"/>
<circle cx="67775" cy="94929" fill="Red" r="0.5"/>
<circle cx="67775" cy="94898" fill="Red" r="0.5"/>
<circle cx="68944" cy="94898" fill="Red" r="0.5"/>
<circle cx="68944" cy="94522" fill="Red" r="0.5"/>
<circle cx="69786" cy="94522" fill="Red" r="0.5"/>
<circle cx="69786" cy="93414" fill="Red" r="0.5"/>
<circle cx="70985" cy="93414" fill="Red" r="0.5"/>
<circle cx="70985" cy="93114" fill="Red" r="0.5"/>
<circle cx="71865" cy="93114" fill="Red" r="0.5"/>
<circle cx="71865" cy="92173" fill="Red" r="0.5"/>
<circle cx="73348" cy="92173" fill="Red" r="0.5"/>
<circle cx="73348" cy="92371" fill="Red" r="0.5"/>
<circle cx="74225" cy="92371" fill="Red" r="0.5"/>
<circle cx="74225" cy="91443" fill="Red" r="0.5"/>
<circle cx="75389" cy="91443" fill="Red" r="0.5"/>
<circle cx="75389" cy="91012" fill="Red" r="0.5"/>
<circle cx="76022" cy="91012" fill="Red" r="0.5"/>
<circle cx="76022" cy="89748" fill="Red" r="0.5"/>
<circle cx="77517" cy="89748" fill="Red" r="0.5"/>
<circle cx="77517" cy="89794" fill="Red" r="0.5"/>
<circle cx="78430" cy="89794" fill="Red" r="0.5"/>
<circle cx="78430" cy="88966" fill="Red" r="0.5"/>
<circle cx="79311" cy="88966" fill="Red" r="0.5"/>
<circle cx="79311" cy="88108" fill="Red" r="0.5"/>
<circle cx="79925" cy="88108" fill="Red" r="0.5"/>
<circle cx="79925" cy="86931" fill="Red" r="0.5"/>
<circle cx="81253" cy="86931" fill="Red" r="0.5"/>
<circle cx="81253" cy="86632" fill="Red" r="0.5"/>
<circle cx="82015" cy="86632" fill="Red" r="0.5"/>
<circle cx="82015" cy="85655" fill="Red" r="0.5"/>
<circle cx="83187" cy="85655" fill="Red" r="0.5"/>
<circle cx="83187" cy="85128" fill="Red" r="0.5"/>
<circle cx="83796" cy="85128" fill="Red" r="0.5"/>
<circle cx="83796" cy="84004" fill="Red" r="0.5"/>
<circle cx="84629" cy="84004" fill="Red" r="0.5"/>
<circle cx="84629" cy="83120" fill="Red" r="0.5"/>
<circle cx="85443" cy="83120" fill="Red" r="0.5"/>
<circle cx="85443" cy="82219" fill="Red" r="0.5"/>
<circle cx="86203" cy="82219" fill="Red" r="0.5"/>
<circle cx="86203" cy="81272" fill="Red" r="0.5"/>
<circle cx="86943" cy="81272" fill="Red" r="0.5"/>
<circle cx="86943" cy="80312" fill="Red" r="0.5"/>
<circle cx="88257" cy="80312" fill="Red" r="0.5"/>
<circle cx="88257" cy="79801" fill="Red" r="0.5"/>
<circle cx="88374" cy="79801" fill="Red" r="0.5"/>
<circle cx="88374" cy="78360" fill="Red" r="0.5"/>
<circle cx="89373" cy="78360" fill="Red" r="0.5"/>
<circle cx="89373" cy="77584" fill="Red" r="0.5"/>
<circle cx="89872" cy="77584" fill="Red" r="0.5"/>
<circle cx="89872" cy="76453" fill="Red" r="0.5"/>
<circle cx="90997" cy="76453" fill="Red" r="0.5"/>
<circle cx="90997" cy="75728" fill="Red" r="0.5"/>
<circle cx="90876" cy="75728" fill="Red" r="0.5"/>
<circle cx="90876" cy="74231" fill="Red" r="0.5"/>
<circle cx="91727" cy="74231" fill="Red" r="0.5"/>
<circle cx="91727" cy="73328" fill="Red" r="0.5"/>
<circle cx="92085" cy="73328" fill="Red" r="0.5"/>
<circle cx="92085" cy="72148" fill="Red" r="0.5"/>
<circle cx="92782" cy="72148" fill="Red" r="0.5"/>
<circle cx="92782" cy="71148" fill="Red" r="0.5"/>
<circle cx="93129" cy="71148" fill="Red" r="0.5"/>
<circle cx="93129" cy="69976" fill="Red" r="0.5"/>
<circle cx="93959" cy="69976" fill="Red" r="0.5"/>
<circle cx="93959" cy="69024" fill="Red" r="0.5"/>
<circle cx="94263" cy="69024" fill="Red" r="0.5"/>
<circle cx="94263" cy="67838" fill="Red" r="0.5"/>
<circle cx="95192" cy="67838" fill="Red" r="0.5"/>
<circle cx="95192" cy="66895" fill="Red" r="0.5"/>
<circle cx="95295" cy="66895" fill="Red" r="0.5"/>
<circle cx="95295" cy="65637" fill="Red" r="0.5"/>
<circle cx="95985" cy="65637" fill="Red" r="0.5"/>
<circle cx="95985" cy="64582" fill="Red" r="0.5"/>
<circle cx="95901" cy="64582" fill="Red" r="0.5"/>
<circle cx="95901" cy="63286" fill="Red" r="0.5"/>
<circle cx="96757" cy="63286" fill="Red" r="0.5"/>
<circle cx="96757" cy="62259" fill="Red" r="0.5"/>
<circle cx="97055" cy="62259" fill="Red" r="0.5"/>
<circle cx="97055" cy="61071" fill="Red" r="0.5"/>
<circle cx="97328" cy="61071" fill="Red" r="0.5"/>
<circle cx="97328" cy="59877" fill="Red" r="0.5"/>
<circle cx="97457" cy="59877" fill="Red" r="0.5"/>
<circle cx="97457" cy="58656" fill="Red" r="0.5"/>
<circle cx="97143" cy="58656" fill="Red" r="0.5"/>
<circle cx="97143" cy="57370" fill="Red" r="0.5"/>
<circle cx="97325" cy="57370" fill="Red" r="0.5"/>
<circle cx="97325" cy="56174" fill="Red" r="0.5"/>
<circle cx="98141" cy="56174" fill="Red" r="0.5"/>
<circle cx="98141" cy="55044" fill="Red" r="0.5"/>
<circle cx="98001" cy="55044" fill="Red" r="0.5"/>
<circle cx="98001" cy="53803" fill="Red" r="0.5"/>
<circle cx="97497" cy="53803" fill="Red" r="0.5"/>
<circle cx="97497" cy="52554" fill="Red" r="0.5"/>
<circle cx="98336" cy="52554" fill="Red" r="0.5"/>
<circle cx="98336" cy="51373" fill="Red" r="0.5"/>
<circle cx="98366" cy="51373" fill="Red" r="0.5"/>
<circle cx="98366" cy="50148" fill="Red" r="0.5"/>
</svg>